<?xml version="1.0"?>
<svg version="1.1" xmlns="http://www.w3.org/2000/svg" width="400px" height="200px" style=""><path fill="#e1e3c3" d="M1.669921875,94.7705078125q-0.05859375-0.7763671875,0.1318359375-1.46484375t0.7177734375-1.142578125t1.787109375-0.4541015625q0.29296875,0,0.7177734375,0.05859375t0.849609375,0.1904296875t0.6884765625,0.3662109375t0.263671875,0.64453125q0,1.083984375,0.0732421875,2.8564453125t0.1904296875,3.69140625t0.2197265625,3.75t0.1904296875,2.9736328125q2.28515625-0.1171875,4.599609375-0.1171875t4.5703125-0.1171875l4.04296875-0.1171875l0-2.900390625q0-4.86328125-0.1904296875-9.7412109375t-0.6591796875-9.7412109375q0-0.3515625,0.29296875-0.5712890625t0.6884765625-0.3369140625t0.8203125-0.146484375t0.6591796875-0.029296875q0.673828125,0,1.4501953125,0.205078125t0.8935546875,0.87890625l0.17578125,1.259765625q0.732421875,5.2734375,0.99609375,10.4296875t0.380859375,10.3125q0.3515625,0.05859375,0.7470703125,0.1904296875t0.8056640625,0.2490234375q0.29296875,0.1171875,0.8349609375,0.3515625t0.5419921875,0.732421875q0,0.46875-0.41015625,0.732421875t-0.9228515625,0.3955078125t-0.99609375,0.1611328125t-0.6005859375,0.029296875q0.05859375,2.16796875,0.05859375,4.3212890625l0,4.3212890625l0,9.462890625l0,5.2734375q0,0.3515625-0.3369140625,0.6298828125t-0.8056640625,0.4541015625t-0.9814453125,0.234375t-0.9228515625,0.05859375t-0.966796875-0.05859375t-0.99609375-0.234375t-0.7763671875-0.439453125t-0.3369140625-0.64453125l0-1.259765625q0.1171875-5.56640625,0.263671875-11.0302734375t0.29296875-10.9716796875q-3.193359375,0.1171875-6.4892578125,0.146484375t-6.5478515625,0.146484375q0.3515625,4.130859375,0.8056640625,8.2470703125t0.9521484375,8.2470703125q0,0.3515625-0.3369140625,0.6298828125t-0.791015625,0.4541015625t-0.966796875,0.234375t-0.9228515625,0.05859375q-0.849609375,0-1.8603515625-0.29296875t-1.1279296875-1.083984375q-0.3515625-3.10546875-0.6591796875-6.85546875t-0.5419921875-7.6611328125t-0.3662109375-7.6611328125t-0.1318359375-6.796875q0-0.732421875-0.05859375-1.5087890625z M35.14658203125,119.072265625q0-1.9921875,0.5419921875-3.837890625t1.6259765625-3.2958984375t2.7099609375-2.314453125t3.7646484375-0.8642578125q1.318359375,0,2.9150390625,0.3955078125t3.0029296875,1.171875t2.34375,1.9775390625t0.9375,2.75390625q0,0.732421875-0.2490234375,1.11328125t-1.0107421875,0.380859375l-0.322265625-0.05859375q0.849609375,2.28515625,1.46484375,4.6875t1.201171875,4.8046875q0.234375,0.46875,0.3515625,0.8349609375t0.1171875,0.7177734375q0,0.46875-0.263671875,0.7763671875t-0.6884765625,0.4541015625t-0.87890625,0.205078125t-0.8056640625,0.05859375q-1.259765625,0-1.8896484375-0.439453125t-0.908203125-1.201171875t-0.3369140625-1.7138671875t-0.234375-1.9189453125q-0.3515625,1.142578125-0.9228515625,2.2265625t-1.34765625,1.9482421875t-1.8310546875,1.376953125t-2.373046875,0.5126953125q-1.93359375,0-3.251953125-1.11328125t-2.1240234375-2.7392578125t-1.171875-3.4716796875t-0.3662109375-3.427734375z M39.30673828125,118.662109375q0,1.083984375,0.146484375,2.28515625t0.4833984375,2.373046875t0.8642578125,2.2119140625t1.318359375,1.8310546875q1.435546875-1.552734375,2.1240234375-3.779296875t1.23046875-4.2919921875t1.23046875-3.544921875t2.1240234375-1.4794921875q0.908203125,0,1.5234375,0.322265625q-0.29296875-0.732421875-0.966796875-1.4208984375t-1.5087890625-1.259765625t-1.728515625-0.9375t-1.6845703125-0.3662109375q-0.234375,0-0.5419921875,0.0732421875t-0.4833984375,0.0146484375q-1.201171875,0.3515625-1.9775390625,1.2158203125t-1.259765625,2.0361328125t-0.6884765625,2.40234375t-0.205078125,2.314453125z M60.5666015625,119.21875l0-0.849609375q0-1.0546875,0.05859375-1.9921875q0.05859375-1.318359375,0.05859375-2.16796875q0-0.46875,0.05859375-1.0693359375t0.29296875-0.9521484375q0.29296875-0.29296875,0.6884765625-0.6005859375t0.8642578125-0.3076171875q1.494140625,0,2.34375,0.3369140625t0.908203125,1.3916015625l0.1171875,0.908203125q0.52734375-1.259765625,1.40625-3.1201171875t2.0361328125-3.544921875t2.607421875-2.87109375t3.0615234375-1.1865234375q1.494140625,0,2.4609375,1.40625t1.5380859375,3.5888671875t0.8056640625,4.86328125t0.322265625,5.2587890625t0.1171875,4.7021484375t0.205078125,3.2080078125q0.1171875,0.908203125,0.3955078125,1.9189453125t0.2783203125,1.8603515625q0,0.234375-0.3369140625,0.4541015625t-0.7177734375,0.3662109375t-0.7763671875,0.234375t-0.5712890625,0.087890625q-1.142578125,0-1.6259765625-1.7138671875t-0.6005859375-4.2919921875t-0.1171875-5.5810546875t-0.205078125-5.5810546875t-0.8349609375-4.2919921875t-2.0068359375-1.7724609375q-1.259765625,0-2.607421875,1.6259765625t-2.314453125,4.3212890625q-0.9375,2.6953125-1.2890625,6.123046875q-0.1171875,1.083984375-0.1171875,2.16796875q0,2.373046875,0.498046875,4.74609375q0.05859375,0.41015625-0.3369140625,0.615234375t-0.9814453125,0.322265625t-1.1865234375,0.146484375t-0.9228515625,0.029296875q-1.142578125,0-1.8310546875-0.8056640625t-1.0693359375-2.0654296875t-0.5126953125-2.8271484375t-0.1611328125-3.0908203125z M87.18779296875,118.720703125q0-2.28515625,0.4833984375-4.1455078125t1.5380859375-3.1494140625t2.7685546875-2.0068359375t4.1748046875-0.7177734375q1.376953125,0,2.8125,0.3662109375t2.4609375,1.3623046875q0-0.5859375,0.1171875-2.4169921875t0.29296875-4.2626953125t0.3662109375-5.09765625t0.3369140625-4.951171875t0.263671875-3.837890625t0.17578125-1.7578125q0.29296875-0.849609375,1.083984375-1.0107421875t1.494140625-0.1611328125q1.845703125,0,2.2705078125,0.5859375t0.4248046875,2.34375q0,6.416015625-0.5712890625,12.7734375t-0.5712890625,12.7734375q0,4.130859375,0.1611328125,8.3056640625t1.1572265625,8.2177734375l0.322265625,0.29296875l0.17578125,0.52734375l-0.439453125,0.673828125q-1.11328125,0.703125-2.578125,0.703125l-0.1171875,0q-1.494140625,0-2.75390625-0.703125q-0.46875-0.29296875-0.7763671875-1.7431640625t-0.4833984375-3.193359375t-0.263671875-3.3544921875t-0.146484375-2.28515625q-1.025390625,2.34375-2.7978515625,4.0283203125t-4.4677734375,1.6845703125q-2.109375,0-3.45703125-0.908203125t-2.0947265625-2.314453125t-1.0546875-3.1494140625t-0.3076171875-3.4716796875z M90.73271484375,118.896484375q0,0.673828125,0.1611328125,1.9921875t0.5126953125,2.63671875t0.9814453125,2.34375t1.6552734375,1.025390625q1.376953125-0.673828125,2.490234375-2.2412109375t1.9189453125-3.45703125t1.259765625-3.779296875t0.4541015625-3.2666015625q0-1.728515625-1.259765625-2.87109375t-3.017578125-1.142578125q-0.52734375,0-1.0693359375,0.205078125t-1.0107421875,0.46875q-1.083984375,1.025390625-1.6845703125,1.8603515625t-0.908203125,1.728515625t-0.3955078125,1.9775390625t-0.087890625,2.51953125z M114.922265625,118.369140625q0-2.6953125,0.6298828125-5.2880859375t1.0693359375-5.1708984375q0.1171875-0.673828125,0.9228515625-0.8349609375t1.3623046875-0.1611328125q0.966796875,0,1.552734375,0.29296875q0.234375,0.1171875,0.439453125,0.263671875t0.205078125,0.380859375q0,2.51953125-0.6005859375,4.921875t-0.6005859375,5.09765625q0,0.908203125,0.1318359375,1.7138671875t0.2490234375,1.5966796875l0.17578125,0.849609375q0,0.234375,0.029296875,0.41015625t0.087890625,0.41015625q0,0.52734375-0.7470703125,0.7177734375t-1.3037109375,0.1904296875q-0.849609375,0-1.5673828125-0.3369140625t-1.1279296875-1.1572265625l-0.41015625-0.849609375q-0.3515625-0.673828125-0.3515625-1.5087890625t-0.146484375-1.5380859375z M116.797265625,100.732421875l0-0.556640625q0-1.376953125,0.6884765625-2.4609375t2.0654296875-1.083984375q0.17578125,0,0.3369140625,0.029296875t0.3369140625,0.029296875q0.3515625,0.05859375,0.9228515625,0.2783203125t0.5712890625,0.6884765625l0,0.05859375q-0.1171875,0.234375-0.146484375,0.4833984375t-0.146484375,0.4248046875l0.05859375-0.05859375q-0.3515625,0.908203125-0.5712890625,1.46484375t-0.4833984375,0.8935546875t-0.6591796875,0.4833984375t-1.1279296875,0.146484375q-0.1171875,0-0.41015625-0.029296875t-0.6298828125-0.1171875t-0.5712890625-0.234375t-0.234375-0.439453125z M139.2046875,88.6474609375q-0.0732421875-0.8935546875,0.1171875-1.552734375t0.76171875-1.083984375t1.8310546875-0.4248046875l4.716796875,0q0.966796875,0,2.5341796875,0.1025390625t3.369140625,0.3076171875t3.5888671875,0.6298828125t3.2666015625,1.0546875t2.40234375,1.552734375t0.9228515625,2.1826171875q0,1.787109375-1.0400390625,3.3544921875t-2.607421875,2.8271484375t-3.310546875,2.2412109375t-3.1201171875,1.7724609375q5.44921875,1.201171875,8.525390625,4.98046875t3.076171875,9.43359375q0,2.98828125-1.142578125,5.9033203125t-3.1201171875,5.2587890625t-4.6875,3.779296875t-5.8154296875,1.435546875q-0.41015625,0-0.9228515625-0.087890625t-0.9375-0.2783203125t-0.732421875-0.5419921875t-0.3076171875-0.908203125q0-2.578125,2.783203125-2.578125q0.46875,0,1.0986328125,0.1318359375t0.9814453125,0.5419921875q1.611328125-0.673828125,2.9443359375-2.138671875t2.255859375-3.2666015625t1.435546875-3.779296875t0.5126953125-3.5888671875q0-1.93359375-0.5712890625-3.9404296875t-1.6552734375-3.720703125t-2.666015625-2.8857421875t-3.6328125-1.46484375q-0.52734375-0.05859375-1.1572265625-0.087890625l-1.259765625-0.05859375t-1.23046875-0.17578125t-1.0400390625-0.46875q0.234375,4.86328125,0.6005859375,9.697265625t0.9814453125,9.697265625q0.234375,0.234375,0.322265625,0.6884765625t0.146484375,0.966796875t0.05859375,0.9814453125l0,0.791015625q0,0.52734375-0.3515625,0.8642578125t-0.8349609375,0.5419921875t-1.025390625,0.263671875t-0.9521484375,0.05859375q-1.318359375,0-2.021484375-0.3515625t-0.99609375-1.025390625t-0.380859375-1.5380859375t-0.146484375-1.8896484375q-0.791015625-8.173828125-1.142578125-16.171875t-0.3515625-16.171875q0-0.966796875-0.0732421875-1.8603515625z M144.6099609375,87.40234375q0,3.603515625,0.234375,7.2216796875t0.41015625,7.2216796875q1.318359375-0.791015625,3.45703125-1.8603515625t4.1455078125-2.3583984375t3.4423828125-2.841796875t1.435546875-3.369140625q0-1.435546875-1.69921875-2.1826171875t-3.955078125-1.11328125t-4.4091796875-0.4541015625t-3.0615234375-0.263671875z M170.20576171875,118.369140625q0-2.6953125,0.6298828125-5.2880859375t1.0693359375-5.1708984375q0.1171875-0.673828125,0.9228515625-0.8349609375t1.3623046875-0.1611328125q0.966796875,0,1.552734375,0.29296875q0.234375,0.1171875,0.439453125,0.263671875t0.205078125,0.380859375q0,2.51953125-0.6005859375,4.921875t-0.6005859375,5.09765625q0,0.908203125,0.1318359375,1.7138671875t0.2490234375,1.5966796875l0.17578125,0.849609375q0,0.234375,0.029296875,0.41015625t0.087890625,0.41015625q0,0.52734375-0.7470703125,0.7177734375t-1.3037109375,0.1904296875q-0.849609375,0-1.5673828125-0.3369140625t-1.1279296875-1.1572265625l-0.41015625-0.849609375q-0.3515625-0.673828125-0.3515625-1.5087890625t-0.146484375-1.5380859375z M172.08076171875,100.732421875l0-0.556640625q0-1.376953125,0.6884765625-2.4609375t2.0654296875-1.083984375q0.17578125,0,0.3369140625,0.029296875t0.3369140625,0.029296875q0.3515625,0.05859375,0.9228515625,0.2783203125t0.5712890625,0.6884765625l0,0.05859375q-0.1171875,0.234375-0.146484375,0.4833984375t-0.146484375,0.4248046875l0.05859375-0.05859375q-0.3515625,0.908203125-0.5712890625,1.46484375t-0.4833984375,0.8935546875t-0.6591796875,0.4833984375t-1.1279296875,0.146484375q-0.1171875,0-0.41015625-0.029296875t-0.6298828125-0.1171875t-0.5712890625-0.234375t-0.234375-0.439453125z M182.998828125,110.869140625q0-1.201171875,0.4248046875-2.021484375t1.8017578125-0.8203125q0.52734375,0,1.318359375,0.1611328125t0.908203125,0.8056640625q0.29296875,1.728515625,0.322265625,3.75t0.205078125,3.80859375q0.673828125-1.318359375,1.728515625-2.841796875t2.40234375-2.8125t2.9296875-2.138671875t3.22265625-0.849609375q0.1171875,0,0.439453125,0.087890625t0.6005859375,0.2490234375t0.3369140625,0.3662109375t-0.322265625,0.380859375q-0.1171875,0.3515625-0.498046875,0.4248046875t-0.673828125,0.0732421875q-0.17578125,0-0.556640625-0.146484375q-2.16796875,1.142578125-3.69140625,3.10546875t-2.490234375,4.3505859375t-1.40625,5.0390625t-0.439453125,5.1708984375q0,1.259765625-0.5712890625,1.5234375t-1.8310546875,0.263671875q-0.673828125,0-1.4208984375-0.146484375t-1.0400390625-0.9375q-0.52734375-1.669921875-0.8642578125-3.837890625t-0.5126953125-4.4677734375t-0.2490234375-4.5263671875t-0.0732421875-4.013671875z M203.81923828125,112.5390625q0-0.849609375,0.4833984375-1.11328125t1.2158203125-0.263671875q1.201171875,0,1.8310546875,0.4541015625t0.6298828125,1.5966796875q0,1.376953125,0.205078125,3.4423828125t0.6005859375,4.013671875t0.9375,3.3544921875t1.1279296875,1.40625q1.083984375,0,1.9189453125-1.669921875t1.46484375-4.1015625t1.083984375-5.2294921875t0.6298828125-4.9951171875q0.1171875-1.201171875,0.5712890625-1.7431640625t1.6552734375-0.5419921875q1.376953125,0,2.0068359375,1.142578125t0.8056640625,2.8125q0.146484375,1.435546875,0.146484375,2.98828125l0,0.498046875l0,1.171875q0,1.11328125,0.029296875,1.9921875l0.849609375,17.958984375l0.1171875,2.98828125q0.05859375,0.41015625,0.087890625,0.7763671875t0.029296875,0.7763671875q0,1.669921875-0.7177734375,2.1533203125t-2.3291015625,0.4833984375q-0.3515625,0-0.8935546875-0.05859375t-1.0546875-0.234375t-0.87890625-0.4833984375t-0.3662109375-0.7763671875l0.1171875-0.29296875q0.146484375-1.7578125,0.146484375-3.69140625l0-0.615234375q-0.029296875-2.28515625-0.146484375-4.62890625t-0.263671875-4.6875t-0.146484375-4.51171875q-0.41015625,0.908203125-0.9521484375,1.875t-1.259765625,1.7431640625t-1.6259765625,1.2890625t-2.05078125,0.5126953125q-1.669921875,0-2.75390625-0.87890625t-1.6845703125-2.28515625t-0.8642578125-3.1494140625t-0.3515625-3.486328125t-0.1171875-3.3251953125t-0.234375-2.666015625z M228.2431640625,119.072265625q0-1.9921875,0.5419921875-3.837890625t1.6259765625-3.2958984375t2.7099609375-2.314453125t3.7646484375-0.8642578125q1.318359375,0,2.9150390625,0.3955078125t3.0029296875,1.171875t2.34375,1.9775390625t0.9375,2.75390625q0,0.732421875-0.2490234375,1.11328125t-1.0107421875,0.380859375l-0.322265625-0.05859375q0.849609375,2.28515625,1.46484375,4.6875t1.201171875,4.8046875q0.234375,0.46875,0.3515625,0.8349609375t0.1171875,0.7177734375q0,0.46875-0.263671875,0.7763671875t-0.6884765625,0.4541015625t-0.87890625,0.205078125t-0.8056640625,0.05859375q-1.259765625,0-1.8896484375-0.439453125t-0.908203125-1.201171875t-0.3369140625-1.7138671875t-0.234375-1.9189453125q-0.3515625,1.142578125-0.9228515625,2.2265625t-1.34765625,1.9482421875t-1.8310546875,1.376953125t-2.373046875,0.5126953125q-1.93359375,0-3.251953125-1.11328125t-2.1240234375-2.7392578125t-1.171875-3.4716796875t-0.3662109375-3.427734375z M232.4033203125,118.662109375q0,1.083984375,0.146484375,2.28515625t0.4833984375,2.373046875t0.8642578125,2.2119140625t1.318359375,1.8310546875q1.435546875-1.552734375,2.1240234375-3.779296875t1.23046875-4.2919921875t1.23046875-3.544921875t2.1240234375-1.4794921875q0.908203125,0,1.5234375,0.322265625q-0.29296875-0.732421875-0.966796875-1.4208984375t-1.5087890625-1.259765625t-1.728515625-0.9375t-1.6845703125-0.3662109375q-0.234375,0-0.5419921875,0.0732421875t-0.4833984375,0.0146484375q-1.201171875,0.3515625-1.9775390625,1.2158203125t-1.259765625,2.0361328125t-0.6884765625,2.40234375t-0.205078125,2.314453125z M253.66318359375,119.21875l0-0.849609375q0-1.0546875,0.05859375-1.9921875q0.05859375-1.318359375,0.05859375-2.16796875q0-0.46875,0.05859375-1.0693359375t0.29296875-0.9521484375q0.29296875-0.29296875,0.6884765625-0.6005859375t0.8642578125-0.3076171875q1.494140625,0,2.34375,0.3369140625t0.908203125,1.3916015625l0.1171875,0.908203125q0.52734375-1.259765625,1.40625-3.1201171875t2.0361328125-3.544921875t2.607421875-2.87109375t3.0615234375-1.1865234375q1.494140625,0,2.4609375,1.40625t1.5380859375,3.5888671875t0.8056640625,4.86328125t0.322265625,5.2587890625t0.1171875,4.7021484375t0.205078125,3.2080078125q0.1171875,0.908203125,0.3955078125,1.9189453125t0.2783203125,1.8603515625q0,0.234375-0.3369140625,0.4541015625t-0.7177734375,0.3662109375t-0.7763671875,0.234375t-0.5712890625,0.087890625q-1.142578125,0-1.6259765625-1.7138671875t-0.6005859375-4.2919921875t-0.1171875-5.5810546875t-0.205078125-5.5810546875t-0.8349609375-4.2919921875t-2.0068359375-1.7724609375q-1.259765625,0-2.607421875,1.6259765625t-2.314453125,4.3212890625q-0.9375,2.6953125-1.2890625,6.123046875q-0.1171875,1.083984375-0.1171875,2.16796875q0,2.373046875,0.498046875,4.74609375q0.05859375,0.41015625-0.3369140625,0.615234375t-0.9814453125,0.322265625t-1.1865234375,0.146484375t-0.9228515625,0.029296875q-1.142578125,0-1.8310546875-0.8056640625t-1.0693359375-2.0654296875t-0.5126953125-2.8271484375t-0.1611328125-3.0908203125z M280.284375,118.369140625q0-2.6953125,0.6298828125-5.2880859375t1.0693359375-5.1708984375q0.1171875-0.673828125,0.9228515625-0.8349609375t1.3623046875-0.1611328125q0.966796875,0,1.552734375,0.29296875q0.234375,0.1171875,0.439453125,0.263671875t0.205078125,0.380859375q0,2.51953125-0.6005859375,4.921875t-0.6005859375,5.09765625q0,0.908203125,0.1318359375,1.7138671875t0.2490234375,1.5966796875l0.17578125,0.849609375q0,0.234375,0.029296875,0.41015625t0.087890625,0.41015625q0,0.52734375-0.7470703125,0.7177734375t-1.3037109375,0.1904296875q-0.849609375,0-1.5673828125-0.3369140625t-1.1279296875-1.1572265625l-0.41015625-0.849609375q-0.3515625-0.673828125-0.3515625-1.5087890625t-0.146484375-1.5380859375z M282.159375,100.732421875l0-0.556640625q0-1.376953125,0.6884765625-2.4609375t2.0654296875-1.083984375q0.17578125,0,0.3369140625,0.029296875t0.3369140625,0.029296875q0.3515625,0.05859375,0.9228515625,0.2783203125t0.5712890625,0.6884765625l0,0.05859375q-0.1171875,0.234375-0.146484375,0.4833984375t-0.146484375,0.4248046875l0.05859375-0.05859375q-0.3515625,0.908203125-0.5712890625,1.46484375t-0.4833984375,0.8935546875t-0.6591796875,0.4833984375t-1.1279296875,0.146484375q-0.1171875,0-0.41015625-0.029296875t-0.6298828125-0.1171875t-0.5712890625-0.234375t-0.234375-0.439453125z M304.4935546875,85.673828125q0-0.5859375,0.908203125-0.8349609375t1.494140625-0.2490234375q0.673828125,0,1.4794921875,0.17578125t0.9814453125,0.908203125q0.849609375,3.427734375,1.3037109375,6.9873046875t0.6884765625,7.1630859375t0.380859375,7.1630859375t0.322265625,7.0458984375q0.791015625-3.486328125,1.6259765625-6.9287109375t2.1826171875-6.8701171875l0-2.34375q0-1.494140625,1.0400390625-2.1533203125t2.7978515625-0.6591796875q0.17578125,0,0.8056640625,0.087890625t0.6298828125,0.5859375q-0.1171875,0.3515625-0.2783203125,0.673828125t-0.1611328125,0.703125q0,4.453125,1.0546875,9.1259765625t2.080078125,9.0966796875q0.5859375-3.779296875,1.34765625-7.529296875t1.58203125-7.470703125q1.083984375-4.98046875,1.6552734375-8.2763671875t1.083984375-5.21484375t1.11328125-2.724609375t1.6845703125-0.8056640625q0.673828125-0.05859375,1.259765625,0.234375t0.46875,0.966796875q-2.109375,10.1953125-3.9404296875,20.44921875t-3.7353515625,20.5078125q0,0.5859375,0.205078125,1.376953125t0.205078125,1.40625q0,0.3515625-0.322265625,0.5859375t-0.7763671875,0.3955078125t-0.99609375,0.2197265625t-0.9521484375,0.05859375q-0.908203125,0-1.904296875-0.2783203125t-1.2890625-1.5966796875q-1.025390625-4.5703125-1.8896484375-9.1845703125t-1.5966796875-9.3017578125q-0.234375,1.083984375-0.439453125,2.197265625t-0.380859375,2.255859375q-0.849609375,4.98046875-1.875,9.9609375t-1.025390625,10.078125q0,1.259765625-0.52734375,1.6259765625t-1.787109375,0.3662109375q-0.966796875,0-1.640625-0.322265625q-0.52734375-0.29296875-0.99609375-0.52734375q-0.41015625-0.234375-0.7470703125-0.5419921875t-0.3369140625-0.6005859375q-0.46875-6.357421875-0.6591796875-12.626953125t-0.4248046875-12.626953125q-0.234375-5.712890625-0.6884765625-11.4111328125t-1.0107421875-11.3232421875z M340.07958984375,119.072265625q0-1.9921875,0.5419921875-3.837890625t1.6259765625-3.2958984375t2.7099609375-2.314453125t3.7646484375-0.8642578125q1.318359375,0,2.9150390625,0.3955078125t3.0029296875,1.171875t2.34375,1.9775390625t0.9375,2.75390625q0,0.732421875-0.2490234375,1.11328125t-1.0107421875,0.380859375l-0.322265625-0.05859375q0.849609375,2.28515625,1.46484375,4.6875t1.201171875,4.8046875q0.234375,0.46875,0.3515625,0.8349609375t0.1171875,0.7177734375q0,0.46875-0.263671875,0.7763671875t-0.6884765625,0.4541015625t-0.87890625,0.205078125t-0.8056640625,0.05859375q-1.259765625,0-1.8896484375-0.439453125t-0.908203125-1.201171875t-0.3369140625-1.7138671875t-0.234375-1.9189453125q-0.3515625,1.142578125-0.9228515625,2.2265625t-1.34765625,1.9482421875t-1.8310546875,1.376953125t-2.373046875,0.5126953125q-1.93359375,0-3.251953125-1.11328125t-2.1240234375-2.7392578125t-1.171875-3.4716796875t-0.3662109375-3.427734375z M344.23974609375,118.662109375q0,1.083984375,0.146484375,2.28515625t0.4833984375,2.373046875t0.8642578125,2.2119140625t1.318359375,1.8310546875q1.435546875-1.552734375,2.1240234375-3.779296875t1.23046875-4.2919921875t1.23046875-3.544921875t2.1240234375-1.4794921875q0.908203125,0,1.5234375,0.322265625q-0.29296875-0.732421875-0.966796875-1.4208984375t-1.5087890625-1.259765625t-1.728515625-0.9375t-1.6845703125-0.3662109375q-0.234375,0-0.5419921875,0.0732421875t-0.4833984375,0.0146484375q-1.201171875,0.3515625-1.9775390625,1.2158203125t-1.259765625,2.0361328125t-0.6884765625,2.40234375t-0.205078125,2.314453125z M365.4703125,129.47265625q0-0.849609375,0.0732421875-1.787109375t0.1318359375-1.7578125l0.17578125-4.39453125q0.29296875-5.2734375,0.7177734375-10.37109375t0.7177734375-10.3125q0.17578125-2.87109375,0.263671875-5.6396484375t0.263671875-5.6396484375q-0.1171875-0.234375-0.1171875-0.322265625q0-0.41015625,0.3076171875-0.64453125t0.7177734375-0.3955078125t0.8642578125-0.2197265625t0.6884765625-0.05859375l0.673828125,0q0.908203125,0.1171875,1.318359375,0.5712890625t0.52734375,1.083984375t0.05859375,1.34765625t-0.05859375,1.3330078125q0,4.248046875-0.205078125,8.6572265625t-0.46875,8.84765625t-0.4833984375,8.876953125t-0.2197265625,8.7744140625l0,2.05078125q0,1.376953125-0.7763671875,1.81640625t-2.1533203125,0.439453125q-1.201171875,0-2.109375-0.52734375t-0.908203125-1.728515625z M378.90791015625,119.072265625q0-1.9921875,0.5419921875-3.837890625t1.6259765625-3.2958984375t2.7099609375-2.314453125t3.7646484375-0.8642578125q1.318359375,0,2.9150390625,0.3955078125t3.0029296875,1.171875t2.34375,1.9775390625t0.9375,2.75390625q0,0.732421875-0.2490234375,1.11328125t-1.0107421875,0.380859375l-0.322265625-0.05859375q0.849609375,2.28515625,1.46484375,4.6875t1.201171875,4.8046875q0.234375,0.46875,0.3515625,0.8349609375t0.1171875,0.7177734375q0,0.46875-0.263671875,0.7763671875t-0.6884765625,0.4541015625t-0.87890625,0.205078125t-0.8056640625,0.05859375q-1.259765625,0-1.8896484375-0.439453125t-0.908203125-1.201171875t-0.3369140625-1.7138671875t-0.234375-1.9189453125q-0.3515625,1.142578125-0.9228515625,2.2265625t-1.34765625,1.9482421875t-1.8310546875,1.376953125t-2.373046875,0.5126953125q-1.93359375,0-3.251953125-1.11328125t-2.1240234375-2.7392578125t-1.171875-3.4716796875t-0.3662109375-3.427734375z M383.06806640625,118.662109375q0,1.083984375,0.146484375,2.28515625t0.4833984375,2.373046875t0.8642578125,2.2119140625t1.318359375,1.8310546875q1.435546875-1.552734375,2.1240234375-3.779296875t1.23046875-4.2919921875t1.23046875-3.544921875t2.1240234375-1.4794921875q0.908203125,0,1.5234375,0.322265625q-0.29296875-0.732421875-0.966796875-1.4208984375t-1.5087890625-1.259765625t-1.728515625-0.9375t-1.6845703125-0.3662109375q-0.234375,0-0.5419921875,0.0732421875t-0.4833984375,0.0146484375q-1.201171875,0.3515625-1.9775390625,1.2158203125t-1.259765625,2.0361328125t-0.6884765625,2.40234375t-0.205078125,2.314453125z"/><path fill="#" d=""/></svg>
